<?xml version="1.0" encoding="utf-8" standalone="no"?>
<!DOCTYPE svg PUBLIC "-//W3C//DTD SVG 1.1//EN"
  "http://www.w3.org/Graphics/SVG/1.1/DTD/svg11.dtd">
<svg xmlns:xlink="http://www.w3.org/1999/xlink" width="460.8pt" height="345.6pt" viewBox="0 0 460.8 345.6" xmlns="http://www.w3.org/2000/svg" version="1.1">
 <metadata>
  <rdf:RDF xmlns:dc="http://purl.org/dc/elements/1.1/" xmlns:cc="http://creativecommons.org/ns#" xmlns:rdf="http://www.w3.org/1999/02/22-rdf-syntax-ns#">
   <cc:Work>
    <dc:type rdf:resource="http://purl.org/dc/dcmitype/StillImage"/>
    <dc:date>2023-01-23T22:52:33.451829</dc:date>
    <dc:format>image/svg+xml</dc:format>
    <dc:creator>
     <cc:Agent>
      <dc:title>Matplotlib v3.6.2, https://matplotlib.org/</dc:title>
     </cc:Agent>
    </dc:creator>
   </cc:Work>
  </rdf:RDF>
 </metadata>
 <defs>
  <style type="text/css">*{stroke-linejoin: round; stroke-linecap: butt}</style>
 </defs>
 <g id="figure_1">
  <g id="patch_1">
   <path d="M 0 345.6 
L 460.8 345.6 
L 460.8 0 
L 0 0 
z
" style="fill: #ffffff"/>
  </g>
  <g id="axes_1">
   <g id="patch_2">
    <path d="M 57.6 307.584 
L 414.72 307.584 
L 414.72 41.472 
L 57.6 41.472 
z
" style="fill: #ffffff"/>
   </g>
   <g id="matplotlib.axis_1">
    <g id="xtick_1">
     <g id="line2d_1">
      <path d="M 73.832727 307.584 
L 73.832727 41.472 
" clip-path="url(#p99ceb04cf1)" style="fill: none; stroke: #b0b0b0; stroke-width: 0.8; stroke-linecap: square"/>
     </g>
     <g id="line2d_2">
      <defs>
       <path id="m08b77c6f83" d="M 0 0 
L 0 3.5 
" style="stroke: #000000; stroke-width: 0.8"/>
      </defs>
      <g>
       <use xlink:href="#m08b77c6f83" x="73.832727" y="307.584" style="stroke: #000000; stroke-width: 0.8"/>
      </g>
     </g>
     <g id="text_1">
      <!-- 0 -->
      <g transform="translate(70.651477 322.182437) scale(0.1 -0.1)">
       <defs>
        <path id="DejaVuSans-30" d="M 2034 4250 
Q 1547 4250 1301 3770 
Q 1056 3291 1056 2328 
Q 1056 1369 1301 889 
Q 1547 409 2034 409 
Q 2525 409 2770 889 
Q 3016 1369 3016 2328 
Q 3016 3291 2770 3770 
Q 2525 4250 2034 4250 
z
M 2034 4750 
Q 2819 4750 3233 4129 
Q 3647 3509 3647 2328 
Q 3647 1150 3233 529 
Q 2819 -91 2034 -91 
Q 1250 -91 836 529 
Q 422 1150 422 2328 
Q 422 3509 836 4129 
Q 1250 4750 2034 4750 
z
" transform="scale(0.015625)"/>
       </defs>
       <use xlink:href="#DejaVuSans-30"/>
      </g>
     </g>
    </g>
    <g id="xtick_2">
     <g id="line2d_3">
      <path d="M 114.618474 307.584 
L 114.618474 41.472 
" clip-path="url(#p99ceb04cf1)" style="fill: none; stroke: #b0b0b0; stroke-width: 0.8; stroke-linecap: square"/>
     </g>
     <g id="line2d_4">
      <g>
       <use xlink:href="#m08b77c6f83" x="114.618474" y="307.584" style="stroke: #000000; stroke-width: 0.8"/>
      </g>
     </g>
     <g id="text_2">
      <!-- 25 -->
      <g transform="translate(108.255974 322.182437) scale(0.1 -0.1)">
       <defs>
        <path id="DejaVuSans-32" d="M 1228 531 
L 3431 531 
L 3431 0 
L 469 0 
L 469 531 
Q 828 903 1448 1529 
Q 2069 2156 2228 2338 
Q 2531 2678 2651 2914 
Q 2772 3150 2772 3378 
Q 2772 3750 2511 3984 
Q 2250 4219 1831 4219 
Q 1534 4219 1204 4116 
Q 875 4013 500 3803 
L 500 4441 
Q 881 4594 1212 4672 
Q 1544 4750 1819 4750 
Q 2544 4750 2975 4387 
Q 3406 4025 3406 3419 
Q 3406 3131 3298 2873 
Q 3191 2616 2906 2266 
Q 2828 2175 2409 1742 
Q 1991 1309 1228 531 
z
" transform="scale(0.015625)"/>
        <path id="DejaVuSans-35" d="M 691 4666 
L 3169 4666 
L 3169 4134 
L 1269 4134 
L 1269 2991 
Q 1406 3038 1543 3061 
Q 1681 3084 1819 3084 
Q 2600 3084 3056 2656 
Q 3513 2228 3513 1497 
Q 3513 744 3044 326 
Q 2575 -91 1722 -91 
Q 1428 -91 1123 -41 
Q 819 9 494 109 
L 494 744 
Q 775 591 1075 516 
Q 1375 441 1709 441 
Q 2250 441 2565 725 
Q 2881 1009 2881 1497 
Q 2881 1984 2565 2268 
Q 2250 2553 1709 2553 
Q 1456 2553 1204 2497 
Q 953 2441 691 2322 
L 691 4666 
z
" transform="scale(0.015625)"/>
       </defs>
       <use xlink:href="#DejaVuSans-32"/>
       <use xlink:href="#DejaVuSans-35" x="63.623047"/>
      </g>
     </g>
    </g>
    <g id="xtick_3">
     <g id="line2d_5">
      <path d="M 155.404221 307.584 
L 155.404221 41.472 
" clip-path="url(#p99ceb04cf1)" style="fill: none; stroke: #b0b0b0; stroke-width: 0.8; stroke-linecap: square"/>
     </g>
     <g id="line2d_6">
      <g>
       <use xlink:href="#m08b77c6f83" x="155.404221" y="307.584" style="stroke: #000000; stroke-width: 0.8"/>
      </g>
     </g>
     <g id="text_3">
      <!-- 50 -->
      <g transform="translate(149.041721 322.182437) scale(0.1 -0.1)">
       <use xlink:href="#DejaVuSans-35"/>
       <use xlink:href="#DejaVuSans-30" x="63.623047"/>
      </g>
     </g>
    </g>
    <g id="xtick_4">
     <g id="line2d_7">
      <path d="M 196.189968 307.584 
L 196.189968 41.472 
" clip-path="url(#p99ceb04cf1)" style="fill: none; stroke: #b0b0b0; stroke-width: 0.8; stroke-linecap: square"/>
     </g>
     <g id="line2d_8">
      <g>
       <use xlink:href="#m08b77c6f83" x="196.189968" y="307.584" style="stroke: #000000; stroke-width: 0.8"/>
      </g>
     </g>
     <g id="text_4">
      <!-- 75 -->
      <g transform="translate(189.827468 322.182437) scale(0.1 -0.1)">
       <defs>
        <path id="DejaVuSans-37" d="M 525 4666 
L 3525 4666 
L 3525 4397 
L 1831 0 
L 1172 0 
L 2766 4134 
L 525 4134 
L 525 4666 
z
" transform="scale(0.015625)"/>
       </defs>
       <use xlink:href="#DejaVuSans-37"/>
       <use xlink:href="#DejaVuSans-35" x="63.623047"/>
      </g>
     </g>
    </g>
    <g id="xtick_5">
     <g id="line2d_9">
      <path d="M 236.975715 307.584 
L 236.975715 41.472 
" clip-path="url(#p99ceb04cf1)" style="fill: none; stroke: #b0b0b0; stroke-width: 0.8; stroke-linecap: square"/>
     </g>
     <g id="line2d_10">
      <g>
       <use xlink:href="#m08b77c6f83" x="236.975715" y="307.584" style="stroke: #000000; stroke-width: 0.8"/>
      </g>
     </g>
     <g id="text_5">
      <!-- 100 -->
      <g transform="translate(227.431965 322.182437) scale(0.1 -0.1)">
       <defs>
        <path id="DejaVuSans-31" d="M 794 531 
L 1825 531 
L 1825 4091 
L 703 3866 
L 703 4441 
L 1819 4666 
L 2450 4666 
L 2450 531 
L 3481 531 
L 3481 0 
L 794 0 
L 794 531 
z
" transform="scale(0.015625)"/>
       </defs>
       <use xlink:href="#DejaVuSans-31"/>
       <use xlink:href="#DejaVuSans-30" x="63.623047"/>
       <use xlink:href="#DejaVuSans-30" x="127.246094"/>
      </g>
     </g>
    </g>
    <g id="xtick_6">
     <g id="line2d_11">
      <path d="M 277.761462 307.584 
L 277.761462 41.472 
" clip-path="url(#p99ceb04cf1)" style="fill: none; stroke: #b0b0b0; stroke-width: 0.8; stroke-linecap: square"/>
     </g>
     <g id="line2d_12">
      <g>
       <use xlink:href="#m08b77c6f83" x="277.761462" y="307.584" style="stroke: #000000; stroke-width: 0.8"/>
      </g>
     </g>
     <g id="text_6">
      <!-- 125 -->
      <g transform="translate(268.217712 322.182437) scale(0.1 -0.1)">
       <use xlink:href="#DejaVuSans-31"/>
       <use xlink:href="#DejaVuSans-32" x="63.623047"/>
       <use xlink:href="#DejaVuSans-35" x="127.246094"/>
      </g>
     </g>
    </g>
    <g id="xtick_7">
     <g id="line2d_13">
      <path d="M 318.547209 307.584 
L 318.547209 41.472 
" clip-path="url(#p99ceb04cf1)" style="fill: none; stroke: #b0b0b0; stroke-width: 0.8; stroke-linecap: square"/>
     </g>
     <g id="line2d_14">
      <g>
       <use xlink:href="#m08b77c6f83" x="318.547209" y="307.584" style="stroke: #000000; stroke-width: 0.8"/>
      </g>
     </g>
     <g id="text_7">
      <!-- 150 -->
      <g transform="translate(309.003459 322.182437) scale(0.1 -0.1)">
       <use xlink:href="#DejaVuSans-31"/>
       <use xlink:href="#DejaVuSans-35" x="63.623047"/>
       <use xlink:href="#DejaVuSans-30" x="127.246094"/>
      </g>
     </g>
    </g>
    <g id="xtick_8">
     <g id="line2d_15">
      <path d="M 359.332956 307.584 
L 359.332956 41.472 
" clip-path="url(#p99ceb04cf1)" style="fill: none; stroke: #b0b0b0; stroke-width: 0.8; stroke-linecap: square"/>
     </g>
     <g id="line2d_16">
      <g>
       <use xlink:href="#m08b77c6f83" x="359.332956" y="307.584" style="stroke: #000000; stroke-width: 0.8"/>
      </g>
     </g>
     <g id="text_8">
      <!-- 175 -->
      <g transform="translate(349.789206 322.182437) scale(0.1 -0.1)">
       <use xlink:href="#DejaVuSans-31"/>
       <use xlink:href="#DejaVuSans-37" x="63.623047"/>
       <use xlink:href="#DejaVuSans-35" x="127.246094"/>
      </g>
     </g>
    </g>
    <g id="xtick_9">
     <g id="line2d_17">
      <path d="M 400.118703 307.584 
L 400.118703 41.472 
" clip-path="url(#p99ceb04cf1)" style="fill: none; stroke: #b0b0b0; stroke-width: 0.8; stroke-linecap: square"/>
     </g>
     <g id="line2d_18">
      <g>
       <use xlink:href="#m08b77c6f83" x="400.118703" y="307.584" style="stroke: #000000; stroke-width: 0.8"/>
      </g>
     </g>
     <g id="text_9">
      <!-- 200 -->
      <g transform="translate(390.574953 322.182437) scale(0.1 -0.1)">
       <use xlink:href="#DejaVuSans-32"/>
       <use xlink:href="#DejaVuSans-30" x="63.623047"/>
       <use xlink:href="#DejaVuSans-30" x="127.246094"/>
      </g>
     </g>
    </g>
    <g id="text_10">
     <!-- Generations -->
     <g transform="translate(205.662344 335.860562) scale(0.1 -0.1)">
      <defs>
       <path id="DejaVuSans-47" d="M 3809 666 
L 3809 1919 
L 2778 1919 
L 2778 2438 
L 4434 2438 
L 4434 434 
Q 4069 175 3628 42 
Q 3188 -91 2688 -91 
Q 1594 -91 976 548 
Q 359 1188 359 2328 
Q 359 3472 976 4111 
Q 1594 4750 2688 4750 
Q 3144 4750 3555 4637 
Q 3966 4525 4313 4306 
L 4313 3634 
Q 3963 3931 3569 4081 
Q 3175 4231 2741 4231 
Q 1884 4231 1454 3753 
Q 1025 3275 1025 2328 
Q 1025 1384 1454 906 
Q 1884 428 2741 428 
Q 3075 428 3337 486 
Q 3600 544 3809 666 
z
" transform="scale(0.015625)"/>
       <path id="DejaVuSans-65" d="M 3597 1894 
L 3597 1613 
L 953 1613 
Q 991 1019 1311 708 
Q 1631 397 2203 397 
Q 2534 397 2845 478 
Q 3156 559 3463 722 
L 3463 178 
Q 3153 47 2828 -22 
Q 2503 -91 2169 -91 
Q 1331 -91 842 396 
Q 353 884 353 1716 
Q 353 2575 817 3079 
Q 1281 3584 2069 3584 
Q 2775 3584 3186 3129 
Q 3597 2675 3597 1894 
z
M 3022 2063 
Q 3016 2534 2758 2815 
Q 2500 3097 2075 3097 
Q 1594 3097 1305 2825 
Q 1016 2553 972 2059 
L 3022 2063 
z
" transform="scale(0.015625)"/>
       <path id="DejaVuSans-6e" d="M 3513 2113 
L 3513 0 
L 2938 0 
L 2938 2094 
Q 2938 2591 2744 2837 
Q 2550 3084 2163 3084 
Q 1697 3084 1428 2787 
Q 1159 2491 1159 1978 
L 1159 0 
L 581 0 
L 581 3500 
L 1159 3500 
L 1159 2956 
Q 1366 3272 1645 3428 
Q 1925 3584 2291 3584 
Q 2894 3584 3203 3211 
Q 3513 2838 3513 2113 
z
" transform="scale(0.015625)"/>
       <path id="DejaVuSans-72" d="M 2631 2963 
Q 2534 3019 2420 3045 
Q 2306 3072 2169 3072 
Q 1681 3072 1420 2755 
Q 1159 2438 1159 1844 
L 1159 0 
L 581 0 
L 581 3500 
L 1159 3500 
L 1159 2956 
Q 1341 3275 1631 3429 
Q 1922 3584 2338 3584 
Q 2397 3584 2469 3576 
Q 2541 3569 2628 3553 
L 2631 2963 
z
" transform="scale(0.015625)"/>
       <path id="DejaVuSans-61" d="M 2194 1759 
Q 1497 1759 1228 1600 
Q 959 1441 959 1056 
Q 959 750 1161 570 
Q 1363 391 1709 391 
Q 2188 391 2477 730 
Q 2766 1069 2766 1631 
L 2766 1759 
L 2194 1759 
z
M 3341 1997 
L 3341 0 
L 2766 0 
L 2766 531 
Q 2569 213 2275 61 
Q 1981 -91 1556 -91 
Q 1019 -91 701 211 
Q 384 513 384 1019 
Q 384 1609 779 1909 
Q 1175 2209 1959 2209 
L 2766 2209 
L 2766 2266 
Q 2766 2663 2505 2880 
Q 2244 3097 1772 3097 
Q 1472 3097 1187 3025 
Q 903 2953 641 2809 
L 641 3341 
Q 956 3463 1253 3523 
Q 1550 3584 1831 3584 
Q 2591 3584 2966 3190 
Q 3341 2797 3341 1997 
z
" transform="scale(0.015625)"/>
       <path id="DejaVuSans-74" d="M 1172 4494 
L 1172 3500 
L 2356 3500 
L 2356 3053 
L 1172 3053 
L 1172 1153 
Q 1172 725 1289 603 
Q 1406 481 1766 481 
L 2356 481 
L 2356 0 
L 1766 0 
Q 1100 0 847 248 
Q 594 497 594 1153 
L 594 3053 
L 172 3053 
L 172 3500 
L 594 3500 
L 594 4494 
L 1172 4494 
z
" transform="scale(0.015625)"/>
       <path id="DejaVuSans-69" d="M 603 3500 
L 1178 3500 
L 1178 0 
L 603 0 
L 603 3500 
z
M 603 4863 
L 1178 4863 
L 1178 4134 
L 603 4134 
L 603 4863 
z
" transform="scale(0.015625)"/>
       <path id="DejaVuSans-6f" d="M 1959 3097 
Q 1497 3097 1228 2736 
Q 959 2375 959 1747 
Q 959 1119 1226 758 
Q 1494 397 1959 397 
Q 2419 397 2687 759 
Q 2956 1122 2956 1747 
Q 2956 2369 2687 2733 
Q 2419 3097 1959 3097 
z
M 1959 3584 
Q 2709 3584 3137 3096 
Q 3566 2609 3566 1747 
Q 3566 888 3137 398 
Q 2709 -91 1959 -91 
Q 1206 -91 779 398 
Q 353 888 353 1747 
Q 353 2609 779 3096 
Q 1206 3584 1959 3584 
z
" transform="scale(0.015625)"/>
       <path id="DejaVuSans-73" d="M 2834 3397 
L 2834 2853 
Q 2591 2978 2328 3040 
Q 2066 3103 1784 3103 
Q 1356 3103 1142 2972 
Q 928 2841 928 2578 
Q 928 2378 1081 2264 
Q 1234 2150 1697 2047 
L 1894 2003 
Q 2506 1872 2764 1633 
Q 3022 1394 3022 966 
Q 3022 478 2636 193 
Q 2250 -91 1575 -91 
Q 1294 -91 989 -36 
Q 684 19 347 128 
L 347 722 
Q 666 556 975 473 
Q 1284 391 1588 391 
Q 1994 391 2212 530 
Q 2431 669 2431 922 
Q 2431 1156 2273 1281 
Q 2116 1406 1581 1522 
L 1381 1569 
Q 847 1681 609 1914 
Q 372 2147 372 2553 
Q 372 3047 722 3315 
Q 1072 3584 1716 3584 
Q 2034 3584 2315 3537 
Q 2597 3491 2834 3397 
z
" transform="scale(0.015625)"/>
      </defs>
      <use xlink:href="#DejaVuSans-47"/>
      <use xlink:href="#DejaVuSans-65" x="77.490234"/>
      <use xlink:href="#DejaVuSans-6e" x="139.013672"/>
      <use xlink:href="#DejaVuSans-65" x="202.392578"/>
      <use xlink:href="#DejaVuSans-72" x="263.916016"/>
      <use xlink:href="#DejaVuSans-61" x="305.029297"/>
      <use xlink:href="#DejaVuSans-74" x="366.308594"/>
      <use xlink:href="#DejaVuSans-69" x="405.517578"/>
      <use xlink:href="#DejaVuSans-6f" x="433.300781"/>
      <use xlink:href="#DejaVuSans-6e" x="494.482422"/>
      <use xlink:href="#DejaVuSans-73" x="557.861328"/>
     </g>
    </g>
   </g>
   <g id="matplotlib.axis_2">
    <g id="ytick_1">
     <g id="line2d_19">
      <path d="M 57.6 297.499484 
L 414.72 297.499484 
" clip-path="url(#p99ceb04cf1)" style="fill: none; stroke: #b0b0b0; stroke-width: 0.8; stroke-linecap: square"/>
     </g>
     <g id="line2d_20">
      <defs>
       <path id="m6c1561496e" d="M 0 0 
L -3.5 0 
" style="stroke: #000000; stroke-width: 0.8"/>
      </defs>
      <g>
       <use xlink:href="#m6c1561496e" x="57.6" y="297.499484" style="stroke: #000000; stroke-width: 0.8"/>
      </g>
     </g>
     <g id="text_11">
      <!-- 3 -->
      <g transform="translate(44.2375 301.298703) scale(0.1 -0.1)">
       <defs>
        <path id="DejaVuSans-33" d="M 2597 2516 
Q 3050 2419 3304 2112 
Q 3559 1806 3559 1356 
Q 3559 666 3084 287 
Q 2609 -91 1734 -91 
Q 1441 -91 1130 -33 
Q 819 25 488 141 
L 488 750 
Q 750 597 1062 519 
Q 1375 441 1716 441 
Q 2309 441 2620 675 
Q 2931 909 2931 1356 
Q 2931 1769 2642 2001 
Q 2353 2234 1838 2234 
L 1294 2234 
L 1294 2753 
L 1863 2753 
Q 2328 2753 2575 2939 
Q 2822 3125 2822 3475 
Q 2822 3834 2567 4026 
Q 2313 4219 1838 4219 
Q 1578 4219 1281 4162 
Q 984 4106 628 3988 
L 628 4550 
Q 988 4650 1302 4700 
Q 1616 4750 1894 4750 
Q 2613 4750 3031 4423 
Q 3450 4097 3450 3541 
Q 3450 3153 3228 2886 
Q 3006 2619 2597 2516 
z
" transform="scale(0.015625)"/>
       </defs>
       <use xlink:href="#DejaVuSans-33"/>
      </g>
     </g>
    </g>
    <g id="ytick_2">
     <g id="line2d_21">
      <path d="M 57.6 261.842332 
L 414.72 261.842332 
" clip-path="url(#p99ceb04cf1)" style="fill: none; stroke: #b0b0b0; stroke-width: 0.8; stroke-linecap: square"/>
     </g>
     <g id="line2d_22">
      <g>
       <use xlink:href="#m6c1561496e" x="57.6" y="261.842332" style="stroke: #000000; stroke-width: 0.8"/>
      </g>
     </g>
     <g id="text_12">
      <!-- 4 -->
      <g transform="translate(44.2375 265.641551) scale(0.1 -0.1)">
       <defs>
        <path id="DejaVuSans-34" d="M 2419 4116 
L 825 1625 
L 2419 1625 
L 2419 4116 
z
M 2253 4666 
L 3047 4666 
L 3047 1625 
L 3713 1625 
L 3713 1100 
L 3047 1100 
L 3047 0 
L 2419 0 
L 2419 1100 
L 313 1100 
L 313 1709 
L 2253 4666 
z
" transform="scale(0.015625)"/>
       </defs>
       <use xlink:href="#DejaVuSans-34"/>
      </g>
     </g>
    </g>
    <g id="ytick_3">
     <g id="line2d_23">
      <path d="M 57.6 226.185181 
L 414.72 226.185181 
" clip-path="url(#p99ceb04cf1)" style="fill: none; stroke: #b0b0b0; stroke-width: 0.8; stroke-linecap: square"/>
     </g>
     <g id="line2d_24">
      <g>
       <use xlink:href="#m6c1561496e" x="57.6" y="226.185181" style="stroke: #000000; stroke-width: 0.8"/>
      </g>
     </g>
     <g id="text_13">
      <!-- 5 -->
      <g transform="translate(44.2375 229.984399) scale(0.1 -0.1)">
       <use xlink:href="#DejaVuSans-35"/>
      </g>
     </g>
    </g>
    <g id="ytick_4">
     <g id="line2d_25">
      <path d="M 57.6 190.528029 
L 414.72 190.528029 
" clip-path="url(#p99ceb04cf1)" style="fill: none; stroke: #b0b0b0; stroke-width: 0.8; stroke-linecap: square"/>
     </g>
     <g id="line2d_26">
      <g>
       <use xlink:href="#m6c1561496e" x="57.6" y="190.528029" style="stroke: #000000; stroke-width: 0.8"/>
      </g>
     </g>
     <g id="text_14">
      <!-- 6 -->
      <g transform="translate(44.2375 194.327248) scale(0.1 -0.1)">
       <defs>
        <path id="DejaVuSans-36" d="M 2113 2584 
Q 1688 2584 1439 2293 
Q 1191 2003 1191 1497 
Q 1191 994 1439 701 
Q 1688 409 2113 409 
Q 2538 409 2786 701 
Q 3034 994 3034 1497 
Q 3034 2003 2786 2293 
Q 2538 2584 2113 2584 
z
M 3366 4563 
L 3366 3988 
Q 3128 4100 2886 4159 
Q 2644 4219 2406 4219 
Q 1781 4219 1451 3797 
Q 1122 3375 1075 2522 
Q 1259 2794 1537 2939 
Q 1816 3084 2150 3084 
Q 2853 3084 3261 2657 
Q 3669 2231 3669 1497 
Q 3669 778 3244 343 
Q 2819 -91 2113 -91 
Q 1303 -91 875 529 
Q 447 1150 447 2328 
Q 447 3434 972 4092 
Q 1497 4750 2381 4750 
Q 2619 4750 2861 4703 
Q 3103 4656 3366 4563 
z
" transform="scale(0.015625)"/>
       </defs>
       <use xlink:href="#DejaVuSans-36"/>
      </g>
     </g>
    </g>
    <g id="ytick_5">
     <g id="line2d_27">
      <path d="M 57.6 154.870877 
L 414.72 154.870877 
" clip-path="url(#p99ceb04cf1)" style="fill: none; stroke: #b0b0b0; stroke-width: 0.8; stroke-linecap: square"/>
     </g>
     <g id="line2d_28">
      <g>
       <use xlink:href="#m6c1561496e" x="57.6" y="154.870877" style="stroke: #000000; stroke-width: 0.8"/>
      </g>
     </g>
     <g id="text_15">
      <!-- 7 -->
      <g transform="translate(44.2375 158.670096) scale(0.1 -0.1)">
       <use xlink:href="#DejaVuSans-37"/>
      </g>
     </g>
    </g>
    <g id="ytick_6">
     <g id="line2d_29">
      <path d="M 57.6 119.213725 
L 414.72 119.213725 
" clip-path="url(#p99ceb04cf1)" style="fill: none; stroke: #b0b0b0; stroke-width: 0.8; stroke-linecap: square"/>
     </g>
     <g id="line2d_30">
      <g>
       <use xlink:href="#m6c1561496e" x="57.6" y="119.213725" style="stroke: #000000; stroke-width: 0.8"/>
      </g>
     </g>
     <g id="text_16">
      <!-- 8 -->
      <g transform="translate(44.2375 123.012944) scale(0.1 -0.1)">
       <defs>
        <path id="DejaVuSans-38" d="M 2034 2216 
Q 1584 2216 1326 1975 
Q 1069 1734 1069 1313 
Q 1069 891 1326 650 
Q 1584 409 2034 409 
Q 2484 409 2743 651 
Q 3003 894 3003 1313 
Q 3003 1734 2745 1975 
Q 2488 2216 2034 2216 
z
M 1403 2484 
Q 997 2584 770 2862 
Q 544 3141 544 3541 
Q 544 4100 942 4425 
Q 1341 4750 2034 4750 
Q 2731 4750 3128 4425 
Q 3525 4100 3525 3541 
Q 3525 3141 3298 2862 
Q 3072 2584 2669 2484 
Q 3125 2378 3379 2068 
Q 3634 1759 3634 1313 
Q 3634 634 3220 271 
Q 2806 -91 2034 -91 
Q 1263 -91 848 271 
Q 434 634 434 1313 
Q 434 1759 690 2068 
Q 947 2378 1403 2484 
z
M 1172 3481 
Q 1172 3119 1398 2916 
Q 1625 2713 2034 2713 
Q 2441 2713 2670 2916 
Q 2900 3119 2900 3481 
Q 2900 3844 2670 4047 
Q 2441 4250 2034 4250 
Q 1625 4250 1398 4047 
Q 1172 3844 1172 3481 
z
" transform="scale(0.015625)"/>
       </defs>
       <use xlink:href="#DejaVuSans-38"/>
      </g>
     </g>
    </g>
    <g id="ytick_7">
     <g id="line2d_31">
      <path d="M 57.6 83.556574 
L 414.72 83.556574 
" clip-path="url(#p99ceb04cf1)" style="fill: none; stroke: #b0b0b0; stroke-width: 0.8; stroke-linecap: square"/>
     </g>
     <g id="line2d_32">
      <g>
       <use xlink:href="#m6c1561496e" x="57.6" y="83.556574" style="stroke: #000000; stroke-width: 0.8"/>
      </g>
     </g>
     <g id="text_17">
      <!-- 9 -->
      <g transform="translate(44.2375 87.355792) scale(0.1 -0.1)">
       <defs>
        <path id="DejaVuSans-39" d="M 703 97 
L 703 672 
Q 941 559 1184 500 
Q 1428 441 1663 441 
Q 2288 441 2617 861 
Q 2947 1281 2994 2138 
Q 2813 1869 2534 1725 
Q 2256 1581 1919 1581 
Q 1219 1581 811 2004 
Q 403 2428 403 3163 
Q 403 3881 828 4315 
Q 1253 4750 1959 4750 
Q 2769 4750 3195 4129 
Q 3622 3509 3622 2328 
Q 3622 1225 3098 567 
Q 2575 -91 1691 -91 
Q 1453 -91 1209 -44 
Q 966 3 703 97 
z
M 1959 2075 
Q 2384 2075 2632 2365 
Q 2881 2656 2881 3163 
Q 2881 3666 2632 3958 
Q 2384 4250 1959 4250 
Q 1534 4250 1286 3958 
Q 1038 3666 1038 3163 
Q 1038 2656 1286 2365 
Q 1534 2075 1959 2075 
z
" transform="scale(0.015625)"/>
       </defs>
       <use xlink:href="#DejaVuSans-39"/>
      </g>
     </g>
    </g>
    <g id="ytick_8">
     <g id="line2d_33">
      <path d="M 57.6 47.899422 
L 414.72 47.899422 
" clip-path="url(#p99ceb04cf1)" style="fill: none; stroke: #b0b0b0; stroke-width: 0.8; stroke-linecap: square"/>
     </g>
     <g id="line2d_34">
      <g>
       <use xlink:href="#m6c1561496e" x="57.6" y="47.899422" style="stroke: #000000; stroke-width: 0.8"/>
      </g>
     </g>
     <g id="text_18">
      <!-- 10 -->
      <g transform="translate(37.875 51.69864) scale(0.1 -0.1)">
       <use xlink:href="#DejaVuSans-31"/>
       <use xlink:href="#DejaVuSans-30" x="63.623047"/>
      </g>
     </g>
    </g>
    <g id="text_19">
     <!-- Fitness -->
     <g transform="translate(31.795312 191.845187) rotate(-90) scale(0.1 -0.1)">
      <defs>
       <path id="DejaVuSans-46" d="M 628 4666 
L 3309 4666 
L 3309 4134 
L 1259 4134 
L 1259 2759 
L 3109 2759 
L 3109 2228 
L 1259 2228 
L 1259 0 
L 628 0 
L 628 4666 
z
" transform="scale(0.015625)"/>
      </defs>
      <use xlink:href="#DejaVuSans-46"/>
      <use xlink:href="#DejaVuSans-69" x="50.269531"/>
      <use xlink:href="#DejaVuSans-74" x="78.052734"/>
      <use xlink:href="#DejaVuSans-6e" x="117.261719"/>
      <use xlink:href="#DejaVuSans-65" x="180.640625"/>
      <use xlink:href="#DejaVuSans-73" x="242.164062"/>
      <use xlink:href="#DejaVuSans-73" x="294.263672"/>
     </g>
    </g>
   </g>
   <g id="line2d_35">
    <path d="M 73.832727 254.003229 
L 75.464157 256.77068 
L 77.095587 241.505464 
L 78.727017 233.797697 
L 80.358447 227.780828 
L 81.989877 219.533418 
L 83.621307 218.37778 
L 85.252736 220.45603 
L 86.884166 211.206302 
L 88.515596 209.804298 
L 90.147026 204.516886 
L 91.778456 204.366654 
L 93.409886 189.643361 
L 95.041316 173.278612 
L 96.672746 178.673746 
L 98.304175 159.954678 
L 99.935605 165.468518 
L 101.567035 164.516323 
L 103.198465 185.633991 
L 104.829895 177.202219 
L 106.461325 182.642073 
L 108.092755 179.377603 
L 109.724185 184.47807 
L 111.355614 191.83994 
L 112.987044 194.957038 
L 114.618474 183.219784 
L 116.249904 177.453921 
L 117.881334 189.892088 
L 119.512764 186.154819 
L 121.144194 175.896306 
L 122.775624 170.294304 
L 124.407053 156.893973 
L 126.038483 159.41776 
L 127.669913 155.074816 
L 129.301343 155.022903 
L 130.932773 147.435311 
L 132.564203 142.984116 
L 134.195633 149.59336 
L 135.827063 143.104157 
L 137.458492 145.365461 
L 139.089922 152.59232 
L 140.721352 136.486566 
L 142.352782 157.77241 
L 143.984212 149.021514 
L 145.615642 151.510196 
L 147.247072 148.695633 
L 148.878502 154.833533 
L 150.509931 133.82259 
L 152.141361 154.296198 
L 153.772791 147.890664 
L 155.404221 137.886622 
L 157.035651 136.945119 
L 158.667081 144.405917 
L 160.298511 144.832998 
L 161.929941 144.556804 
L 163.56137 151.865611 
L 165.1928 147.622179 
L 166.82423 155.888474 
L 168.45566 153.299369 
L 170.08709 142.193541 
L 171.71852 152.135301 
L 173.34995 155.028677 
L 174.98138 152.44687 
L 176.61281 155.48 
L 178.244239 158.079839 
L 179.875669 141.687187 
L 181.507099 152.302062 
L 183.138529 154.13307 
L 184.769959 149.173759 
L 186.401389 155.363195 
L 188.032819 152.668116 
L 189.664249 149.645295 
L 191.295678 142.513194 
L 192.927108 141.709413 
L 194.558538 150.502758 
L 196.189968 144.57969 
L 197.821398 148.108092 
L 199.452828 160.195189 
L 201.084258 139.475276 
L 202.715688 143.433441 
L 204.347117 153.641645 
L 205.978547 154.381845 
L 207.609977 148.49612 
L 209.241407 160.650056 
L 210.872837 167.257805 
L 212.504267 164.522029 
L 214.135697 156.253982 
L 217.398556 176.507936 
L 219.029986 158.873048 
L 220.661416 150.071121 
L 222.292846 162.710708 
L 223.924276 151.145262 
L 225.555706 151.069567 
L 227.187136 146.593166 
L 228.818566 149.883325 
L 230.449995 167.024782 
L 232.081425 151.191406 
L 233.712855 166.519364 
L 235.344285 172.986966 
L 236.975715 161.681003 
L 238.607145 158.599758 
L 240.238575 155.092944 
L 241.870005 149.241972 
L 243.501434 161.38629 
L 245.132864 151.355168 
L 246.764294 154.827334 
L 248.395724 147.40371 
L 250.027154 171.136382 
L 251.658584 155.904178 
L 253.290014 144.243541 
L 254.921444 161.377081 
L 256.552873 148.328924 
L 258.184303 155.832994 
L 259.815733 151.463521 
L 261.447163 150.83449 
L 263.078593 156.759317 
L 264.710023 143.258542 
L 267.972883 160.557559 
L 269.604312 147.265942 
L 271.235742 159.401893 
L 272.867172 147.406506 
L 274.498602 147.528551 
L 276.130032 156.295621 
L 277.761462 152.753699 
L 279.392892 154.021293 
L 281.024322 153.54733 
L 282.655751 154.38708 
L 284.287181 154.521808 
L 285.918611 147.771451 
L 287.550041 153.372113 
L 289.181471 153.550097 
L 290.812901 151.278818 
L 292.444331 159.400431 
L 294.075761 160.854768 
L 295.70719 156.232307 
L 297.33862 154.072958 
L 298.97005 155.630758 
L 300.60148 160.181629 
L 302.23291 154.085067 
L 303.86434 160.298786 
L 305.49577 158.368274 
L 307.1272 163.616477 
L 308.75863 163.440724 
L 310.390059 155.686292 
L 312.021489 155.860473 
L 313.652919 157.262641 
L 315.284349 160.540858 
L 316.915779 163.013692 
L 318.547209 154.879263 
L 320.178639 163.496998 
L 321.810069 166.712402 
L 323.441498 154.883166 
L 325.072928 159.388253 
L 326.704358 169.586539 
L 328.335788 154.010925 
L 329.967218 181.764957 
L 331.598648 179.501566 
L 333.230078 175.2363 
L 334.861508 168.993024 
L 336.492937 189.332272 
L 338.124367 176.518931 
L 339.755797 186.18705 
L 341.387227 175.273398 
L 343.018657 172.974518 
L 344.650087 175.550159 
L 346.281517 176.287011 
L 347.912947 171.432566 
L 349.544376 169.391341 
L 351.175806 167.598075 
L 352.807236 171.046694 
L 354.438666 170.067415 
L 356.070096 171.663936 
L 357.701526 175.679325 
L 359.332956 163.96711 
L 360.964386 159.701418 
L 362.595815 169.472481 
L 364.227245 169.922985 
L 365.858675 164.961964 
L 367.490105 173.772507 
L 369.121535 169.416465 
L 370.752965 167.100978 
L 372.384395 163.679894 
L 374.015825 167.165804 
L 375.647254 164.111118 
L 377.278684 175.230501 
L 378.910114 170.29359 
L 380.541544 171.376623 
L 382.172974 166.90045 
L 383.804404 173.414978 
L 385.435834 167.884589 
L 387.067264 169.538246 
L 388.698693 160.081135 
L 390.330123 162.761257 
L 391.961553 164.092003 
L 393.592983 170.576227 
L 395.224413 168.307305 
L 396.855843 167.521663 
L 398.487273 170.397526 
L 398.487273 170.397526 
" clip-path="url(#p99ceb04cf1)" style="fill: none; stroke: #0000ff; stroke-width: 1.5; stroke-linecap: square"/>
   </g>
   <g id="line2d_36">
    <path d="M 73.832727 294.04339 
L 75.464157 295.488 
L 77.095587 293.045423 
L 78.727017 289.524638 
L 80.358447 288.307816 
L 81.989877 282.760629 
L 83.621307 288.575442 
L 85.252736 293.9076 
L 86.884166 284.963772 
L 88.515596 283.067261 
L 90.147026 280.441105 
L 91.778456 282.082518 
L 93.409886 274.393591 
L 95.041316 259.905478 
L 96.672746 265.567002 
L 98.304175 246.192083 
L 99.935605 254.342838 
L 101.567035 251.983715 
L 103.198465 273.867968 
L 104.829895 265.082388 
L 106.461325 271.77244 
L 108.092755 266.14273 
L 109.724185 271.602677 
L 111.355614 278.445491 
L 112.987044 279.099498 
L 114.618474 271.389004 
L 116.249904 266.432319 
L 117.881334 276.571509 
L 119.512764 271.61822 
L 122.775624 257.202643 
L 124.407053 243.811259 
L 126.038483 246.440007 
L 127.669913 243.711082 
L 129.301343 243.09792 
L 130.932773 232.252641 
L 132.564203 230.303938 
L 134.195633 235.321661 
L 135.827063 226.578168 
L 137.458492 230.438157 
L 139.089922 239.401612 
L 140.721352 216.863062 
L 142.352782 246.422256 
L 143.984212 235.493488 
L 145.615642 236.994368 
L 147.247072 233.740413 
L 148.878502 240.239956 
L 150.509931 214.077181 
L 152.141361 243.740568 
L 155.404221 222.004674 
L 157.035651 217.743338 
L 158.667081 228.360954 
L 160.298511 230.888209 
L 161.929941 229.056758 
L 163.56137 237.027001 
L 165.1928 233.217805 
L 166.82423 244.812944 
L 168.45566 241.262272 
L 170.08709 224.595237 
L 171.71852 240.753265 
L 173.34995 244.256185 
L 174.98138 237.242302 
L 176.61281 244.755604 
L 178.244239 245.177069 
L 179.875669 223.889473 
L 181.507099 238.343894 
L 183.138529 240.263975 
L 184.769959 234.021915 
L 186.401389 245.633844 
L 188.032819 239.956212 
L 189.664249 236.464383 
L 191.295678 224.413714 
L 192.927108 225.760505 
L 194.558538 236.921114 
L 196.189968 230.417339 
L 197.821398 234.971147 
L 199.452828 249.343459 
L 201.084258 221.311718 
L 202.715688 227.23576 
L 204.347117 242.775369 
L 205.978547 243.738088 
L 207.609977 237.726827 
L 209.241407 247.503149 
L 210.872837 254.167645 
L 212.504267 251.626785 
L 214.135697 239.67105 
L 215.767127 253.698149 
L 217.398556 263.019175 
L 219.029986 245.081456 
L 220.661416 234.219334 
L 222.292846 248.126686 
L 223.924276 236.400974 
L 225.555706 235.424101 
L 227.187136 229.898943 
L 228.818566 234.658244 
L 230.449995 256.128815 
L 232.081425 237.980335 
L 233.712855 255.094457 
L 235.344285 261.963065 
L 236.975715 249.721563 
L 240.238575 240.194286 
L 241.870005 234.36686 
L 243.501434 250.510665 
L 245.132864 236.694988 
L 246.764294 241.398252 
L 248.395724 231.439835 
L 250.027154 259.634769 
L 251.658584 243.238211 
L 253.290014 228.673359 
L 254.921444 248.923992 
L 256.552873 233.600083 
L 258.184303 242.457946 
L 259.815733 237.504865 
L 261.447163 235.543765 
L 263.078593 243.465925 
L 264.710023 227.347034 
L 266.341453 237.969479 
L 267.972883 247.405389 
L 269.604312 231.545797 
L 271.235742 246.045432 
L 272.867172 234.279325 
L 274.498602 231.830231 
L 276.130032 243.115081 
L 277.761462 239.848413 
L 279.392892 240.415802 
L 281.024322 241.103486 
L 282.655751 241.457397 
L 284.287181 240.341299 
L 285.918611 232.159514 
L 287.550041 239.083883 
L 289.181471 239.863432 
L 290.812901 237.538841 
L 292.444331 247.317536 
L 294.075761 249.714463 
L 295.70719 244.608716 
L 297.33862 240.223248 
L 298.97005 242.992169 
L 300.60148 249.094492 
L 302.23291 239.543076 
L 303.86434 248.085304 
L 305.49577 245.606784 
L 307.1272 254.034818 
L 308.75863 252.195495 
L 310.390059 242.143933 
L 312.021489 243.636817 
L 313.652919 246.054301 
L 315.284349 247.468794 
L 316.915779 250.926154 
L 318.547209 242.520571 
L 320.178639 253.457919 
L 321.810069 255.003073 
L 323.441498 242.603924 
L 325.072928 246.680106 
L 326.704358 259.559059 
L 328.335788 239.884583 
L 329.967218 272.087964 
L 331.598648 267.976469 
L 333.230078 265.111358 
L 334.861508 257.555086 
L 336.492937 275.12746 
L 338.124367 263.380593 
L 339.755797 271.908487 
L 341.387227 261.70079 
L 343.018657 259.042172 
L 344.650087 265.409633 
L 346.281517 263.360908 
L 347.912947 259.646923 
L 349.544376 256.353373 
L 351.175806 254.688122 
L 352.807236 262.802376 
L 354.438666 259.226529 
L 356.070096 259.689496 
L 357.701526 264.111396 
L 359.332956 250.897859 
L 360.964386 245.679514 
L 362.595815 257.561574 
L 364.227245 259.863579 
L 365.858675 252.38063 
L 367.490105 262.00049 
L 369.121535 257.483369 
L 370.752965 255.296914 
L 372.384395 253.96437 
L 374.015825 255.672468 
L 375.647254 254.558579 
L 377.278684 265.263324 
L 378.910114 260.578618 
L 380.541544 262.022461 
L 382.172974 256.349604 
L 383.804404 262.601226 
L 385.435834 256.331323 
L 387.067264 261.428384 
L 388.698693 249.671659 
L 390.330123 252.022089 
L 391.961553 252.665192 
L 393.592983 258.172572 
L 395.224413 257.829727 
L 396.855843 254.639029 
L 398.487273 257.896449 
L 398.487273 257.896449 
" clip-path="url(#p99ceb04cf1)" style="fill: none; stroke-dasharray: 9.6,2.4,1.5,2.4; stroke-dashoffset: 0; stroke: #008000; stroke-width: 1.5"/>
   </g>
   <g id="line2d_37">
    <path d="M 73.832727 213.963068 
L 75.464157 218.05336 
L 77.095587 189.965506 
L 78.727017 178.070757 
L 81.989877 156.306206 
L 83.621307 148.180119 
L 85.252736 147.00446 
L 86.884166 137.448831 
L 88.515596 136.541335 
L 90.147026 128.592668 
L 91.778456 126.65079 
L 93.409886 104.89313 
L 95.041316 86.651746 
L 96.672746 91.780491 
L 98.304175 73.717273 
L 99.935605 76.594198 
L 101.567035 77.048931 
L 103.198465 97.400013 
L 104.829895 89.322049 
L 106.461325 93.511705 
L 108.092755 92.612477 
L 109.724185 97.353463 
L 111.355614 105.234388 
L 112.987044 110.814578 
L 114.618474 95.050563 
L 116.249904 88.475524 
L 117.881334 103.212666 
L 119.512764 100.691418 
L 121.144194 87.500807 
L 122.775624 83.385966 
L 124.407053 69.976686 
L 126.038483 72.395513 
L 127.669913 66.438551 
L 129.301343 66.947886 
L 130.932773 62.61798 
L 132.564203 55.664293 
L 134.195633 63.865058 
L 135.827063 59.630146 
L 137.458492 60.292766 
L 139.089922 65.783027 
L 140.721352 56.11007 
L 142.352782 69.122564 
L 143.984212 62.54954 
L 145.615642 66.026024 
L 147.247072 63.650852 
L 148.878502 69.42711 
L 150.509931 53.568 
L 152.141361 64.851827 
L 153.772791 62.717495 
L 155.404221 53.76857 
L 157.035651 56.1469 
L 158.667081 60.45088 
L 160.298511 58.777787 
L 161.929941 60.056851 
L 163.56137 66.704221 
L 165.1928 62.026553 
L 166.82423 66.964005 
L 168.45566 65.336466 
L 170.08709 59.791845 
L 171.71852 63.517338 
L 173.34995 65.801168 
L 174.98138 67.651438 
L 176.61281 66.204397 
L 178.244239 70.98261 
L 179.875669 59.484901 
L 181.507099 66.260231 
L 183.138529 68.002165 
L 184.769959 64.325604 
L 186.401389 65.092545 
L 188.032819 65.380021 
L 189.664249 62.826207 
L 191.295678 60.612674 
L 192.927108 57.658322 
L 194.558538 64.084402 
L 196.189968 58.742041 
L 197.821398 61.245037 
L 199.452828 71.046918 
L 201.084258 57.638835 
L 202.715688 59.631122 
L 204.347117 64.507922 
L 205.978547 65.025602 
L 207.609977 59.265414 
L 209.241407 73.796962 
L 210.872837 80.347965 
L 212.504267 77.417273 
L 214.135697 72.836914 
L 215.767127 79.564371 
L 217.398556 89.996696 
L 219.029986 72.664639 
L 220.661416 65.922908 
L 222.292846 77.294731 
L 223.924276 65.889551 
L 225.555706 66.715033 
L 227.187136 63.28739 
L 228.818566 65.108405 
L 230.449995 77.920749 
L 232.081425 64.402477 
L 233.712855 77.944271 
L 235.344285 84.010866 
L 236.975715 73.640443 
L 238.607145 72.283759 
L 240.238575 69.991603 
L 241.870005 64.117084 
L 243.501434 72.261916 
L 245.132864 66.015348 
L 246.764294 68.256417 
L 248.395724 63.367585 
L 250.027154 82.637995 
L 251.658584 68.570145 
L 253.290014 59.813723 
L 254.921444 73.83017 
L 256.552873 63.057764 
L 258.184303 69.208043 
L 259.815733 65.422178 
L 261.447163 66.125216 
L 263.078593 70.052709 
L 264.710023 59.170051 
L 266.341453 65.376946 
L 267.972883 73.70973 
L 269.604312 62.986087 
L 271.235742 72.758355 
L 272.867172 60.533687 
L 274.498602 63.226871 
L 276.130032 69.476162 
L 277.761462 65.658986 
L 279.392892 67.626785 
L 281.024322 65.991174 
L 284.287181 68.702316 
L 285.918611 63.383387 
L 287.550041 67.660343 
L 289.181471 67.236763 
L 290.812901 65.018796 
L 292.444331 71.483327 
L 294.075761 71.995072 
L 295.70719 67.855898 
L 297.33862 67.922668 
L 298.97005 68.269347 
L 300.60148 71.268766 
L 302.23291 68.627058 
L 303.86434 72.512269 
L 305.49577 71.129764 
L 307.1272 73.198135 
L 308.75863 74.685952 
L 310.390059 69.228651 
L 312.021489 68.084129 
L 313.652919 68.470981 
L 315.284349 73.612922 
L 316.915779 75.10123 
L 318.547209 67.237955 
L 320.178639 73.536077 
L 321.810069 78.421732 
L 323.441498 67.162408 
L 325.072928 72.0964 
L 326.704358 79.614019 
L 328.335788 68.137268 
L 329.967218 91.441951 
L 331.598648 91.026663 
L 333.230078 85.361241 
L 334.861508 80.430963 
L 336.492937 103.537083 
L 338.124367 89.657269 
L 339.755797 100.465612 
L 341.387227 88.846006 
L 343.018657 86.906863 
L 344.650087 85.690686 
L 346.281517 89.213114 
L 347.912947 83.218209 
L 349.544376 82.42931 
L 351.175806 80.508027 
L 352.807236 79.291011 
L 354.438666 80.908301 
L 356.070096 83.638376 
L 357.701526 87.247253 
L 359.332956 77.036361 
L 360.964386 73.723321 
L 362.595815 81.383389 
L 364.227245 79.98239 
L 365.858675 77.543298 
L 367.490105 85.544523 
L 369.121535 81.349561 
L 370.752965 78.905042 
L 372.384395 73.395419 
L 374.015825 78.659141 
L 375.647254 73.663658 
L 377.278684 85.197678 
L 378.910114 80.008562 
L 380.541544 80.730785 
L 382.172974 77.451296 
L 383.804404 84.22873 
L 385.435834 79.437856 
L 387.067264 77.648109 
L 388.698693 70.490611 
L 390.330123 73.500424 
L 391.961553 75.518814 
L 393.592983 82.979882 
L 395.224413 78.784882 
L 396.855843 80.404297 
L 398.487273 82.898604 
L 398.487273 82.898604 
" clip-path="url(#p99ceb04cf1)" style="fill: none; stroke-dasharray: 9.6,2.4,1.5,2.4; stroke-dashoffset: 0; stroke: #008000; stroke-width: 1.5"/>
   </g>
   <g id="line2d_38">
    <path d="M 73.832727 130.086187 
L 75.464157 86.344409 
L 77.095587 86.344409 
L 78.727017 85.632994 
L 80.358447 84.435778 
L 81.989877 84.435778 
L 83.621307 84.224573 
L 85.252736 83.715885 
L 86.884166 83.715885 
L 90.147026 83.562544 
L 398.487273 83.556574 
L 398.487273 83.556574 
" clip-path="url(#p99ceb04cf1)" style="fill: none; stroke: #ff0000; stroke-width: 1.5; stroke-linecap: square"/>
   </g>
   <g id="patch_3">
    <path d="M 57.6 307.584 
L 57.6 41.472 
" style="fill: none; stroke: #000000; stroke-width: 0.8; stroke-linejoin: miter; stroke-linecap: square"/>
   </g>
   <g id="patch_4">
    <path d="M 414.72 307.584 
L 414.72 41.472 
" style="fill: none; stroke: #000000; stroke-width: 0.8; stroke-linejoin: miter; stroke-linecap: square"/>
   </g>
   <g id="patch_5">
    <path d="M 57.6 307.584 
L 414.72 307.584 
" style="fill: none; stroke: #000000; stroke-width: 0.8; stroke-linejoin: miter; stroke-linecap: square"/>
   </g>
   <g id="patch_6">
    <path d="M 57.6 41.472 
L 414.72 41.472 
" style="fill: none; stroke: #000000; stroke-width: 0.8; stroke-linejoin: miter; stroke-linecap: square"/>
   </g>
   <g id="text_20">
    <!-- Population's average and best fitness -->
    <g transform="translate(123.529687 35.472) scale(0.12 -0.12)">
     <defs>
      <path id="DejaVuSans-50" d="M 1259 4147 
L 1259 2394 
L 2053 2394 
Q 2494 2394 2734 2622 
Q 2975 2850 2975 3272 
Q 2975 3691 2734 3919 
Q 2494 4147 2053 4147 
L 1259 4147 
z
M 628 4666 
L 2053 4666 
Q 2838 4666 3239 4311 
Q 3641 3956 3641 3272 
Q 3641 2581 3239 2228 
Q 2838 1875 2053 1875 
L 1259 1875 
L 1259 0 
L 628 0 
L 628 4666 
z
" transform="scale(0.015625)"/>
      <path id="DejaVuSans-70" d="M 1159 525 
L 1159 -1331 
L 581 -1331 
L 581 3500 
L 1159 3500 
L 1159 2969 
Q 1341 3281 1617 3432 
Q 1894 3584 2278 3584 
Q 2916 3584 3314 3078 
Q 3713 2572 3713 1747 
Q 3713 922 3314 415 
Q 2916 -91 2278 -91 
Q 1894 -91 1617 61 
Q 1341 213 1159 525 
z
M 3116 1747 
Q 3116 2381 2855 2742 
Q 2594 3103 2138 3103 
Q 1681 3103 1420 2742 
Q 1159 2381 1159 1747 
Q 1159 1113 1420 752 
Q 1681 391 2138 391 
Q 2594 391 2855 752 
Q 3116 1113 3116 1747 
z
" transform="scale(0.015625)"/>
      <path id="DejaVuSans-75" d="M 544 1381 
L 544 3500 
L 1119 3500 
L 1119 1403 
Q 1119 906 1312 657 
Q 1506 409 1894 409 
Q 2359 409 2629 706 
Q 2900 1003 2900 1516 
L 2900 3500 
L 3475 3500 
L 3475 0 
L 2900 0 
L 2900 538 
Q 2691 219 2414 64 
Q 2138 -91 1772 -91 
Q 1169 -91 856 284 
Q 544 659 544 1381 
z
M 1991 3584 
L 1991 3584 
z
" transform="scale(0.015625)"/>
      <path id="DejaVuSans-6c" d="M 603 4863 
L 1178 4863 
L 1178 0 
L 603 0 
L 603 4863 
z
" transform="scale(0.015625)"/>
      <path id="DejaVuSans-27" d="M 1147 4666 
L 1147 2931 
L 616 2931 
L 616 4666 
L 1147 4666 
z
" transform="scale(0.015625)"/>
      <path id="DejaVuSans-20" transform="scale(0.015625)"/>
      <path id="DejaVuSans-76" d="M 191 3500 
L 800 3500 
L 1894 563 
L 2988 3500 
L 3597 3500 
L 2284 0 
L 1503 0 
L 191 3500 
z
" transform="scale(0.015625)"/>
      <path id="DejaVuSans-67" d="M 2906 1791 
Q 2906 2416 2648 2759 
Q 2391 3103 1925 3103 
Q 1463 3103 1205 2759 
Q 947 2416 947 1791 
Q 947 1169 1205 825 
Q 1463 481 1925 481 
Q 2391 481 2648 825 
Q 2906 1169 2906 1791 
z
M 3481 434 
Q 3481 -459 3084 -895 
Q 2688 -1331 1869 -1331 
Q 1566 -1331 1297 -1286 
Q 1028 -1241 775 -1147 
L 775 -588 
Q 1028 -725 1275 -790 
Q 1522 -856 1778 -856 
Q 2344 -856 2625 -561 
Q 2906 -266 2906 331 
L 2906 616 
Q 2728 306 2450 153 
Q 2172 0 1784 0 
Q 1141 0 747 490 
Q 353 981 353 1791 
Q 353 2603 747 3093 
Q 1141 3584 1784 3584 
Q 2172 3584 2450 3431 
Q 2728 3278 2906 2969 
L 2906 3500 
L 3481 3500 
L 3481 434 
z
" transform="scale(0.015625)"/>
      <path id="DejaVuSans-64" d="M 2906 2969 
L 2906 4863 
L 3481 4863 
L 3481 0 
L 2906 0 
L 2906 525 
Q 2725 213 2448 61 
Q 2172 -91 1784 -91 
Q 1150 -91 751 415 
Q 353 922 353 1747 
Q 353 2572 751 3078 
Q 1150 3584 1784 3584 
Q 2172 3584 2448 3432 
Q 2725 3281 2906 2969 
z
M 947 1747 
Q 947 1113 1208 752 
Q 1469 391 1925 391 
Q 2381 391 2643 752 
Q 2906 1113 2906 1747 
Q 2906 2381 2643 2742 
Q 2381 3103 1925 3103 
Q 1469 3103 1208 2742 
Q 947 2381 947 1747 
z
" transform="scale(0.015625)"/>
      <path id="DejaVuSans-62" d="M 3116 1747 
Q 3116 2381 2855 2742 
Q 2594 3103 2138 3103 
Q 1681 3103 1420 2742 
Q 1159 2381 1159 1747 
Q 1159 1113 1420 752 
Q 1681 391 2138 391 
Q 2594 391 2855 752 
Q 3116 1113 3116 1747 
z
M 1159 2969 
Q 1341 3281 1617 3432 
Q 1894 3584 2278 3584 
Q 2916 3584 3314 3078 
Q 3713 2572 3713 1747 
Q 3713 922 3314 415 
Q 2916 -91 2278 -91 
Q 1894 -91 1617 61 
Q 1341 213 1159 525 
L 1159 0 
L 581 0 
L 581 4863 
L 1159 4863 
L 1159 2969 
z
" transform="scale(0.015625)"/>
      <path id="DejaVuSans-66" d="M 2375 4863 
L 2375 4384 
L 1825 4384 
Q 1516 4384 1395 4259 
Q 1275 4134 1275 3809 
L 1275 3500 
L 2222 3500 
L 2222 3053 
L 1275 3053 
L 1275 0 
L 697 0 
L 697 3053 
L 147 3053 
L 147 3500 
L 697 3500 
L 697 3744 
Q 697 4328 969 4595 
Q 1241 4863 1831 4863 
L 2375 4863 
z
" transform="scale(0.015625)"/>
     </defs>
     <use xlink:href="#DejaVuSans-50"/>
     <use xlink:href="#DejaVuSans-6f" x="56.677734"/>
     <use xlink:href="#DejaVuSans-70" x="117.859375"/>
     <use xlink:href="#DejaVuSans-75" x="181.335938"/>
     <use xlink:href="#DejaVuSans-6c" x="244.714844"/>
     <use xlink:href="#DejaVuSans-61" x="272.498047"/>
     <use xlink:href="#DejaVuSans-74" x="333.777344"/>
     <use xlink:href="#DejaVuSans-69" x="372.986328"/>
     <use xlink:href="#DejaVuSans-6f" x="400.769531"/>
     <use xlink:href="#DejaVuSans-6e" x="461.951172"/>
     <use xlink:href="#DejaVuSans-27" x="525.330078"/>
     <use xlink:href="#DejaVuSans-73" x="552.820312"/>
     <use xlink:href="#DejaVuSans-20" x="604.919922"/>
     <use xlink:href="#DejaVuSans-61" x="636.707031"/>
     <use xlink:href="#DejaVuSans-76" x="697.986328"/>
     <use xlink:href="#DejaVuSans-65" x="757.166016"/>
     <use xlink:href="#DejaVuSans-72" x="818.689453"/>
     <use xlink:href="#DejaVuSans-61" x="859.802734"/>
     <use xlink:href="#DejaVuSans-67" x="921.082031"/>
     <use xlink:href="#DejaVuSans-65" x="984.558594"/>
     <use xlink:href="#DejaVuSans-20" x="1046.082031"/>
     <use xlink:href="#DejaVuSans-61" x="1077.869141"/>
     <use xlink:href="#DejaVuSans-6e" x="1139.148438"/>
     <use xlink:href="#DejaVuSans-64" x="1202.527344"/>
     <use xlink:href="#DejaVuSans-20" x="1266.003906"/>
     <use xlink:href="#DejaVuSans-62" x="1297.791016"/>
     <use xlink:href="#DejaVuSans-65" x="1361.267578"/>
     <use xlink:href="#DejaVuSans-73" x="1422.791016"/>
     <use xlink:href="#DejaVuSans-74" x="1474.890625"/>
     <use xlink:href="#DejaVuSans-20" x="1514.099609"/>
     <use xlink:href="#DejaVuSans-66" x="1545.886719"/>
     <use xlink:href="#DejaVuSans-69" x="1581.091797"/>
     <use xlink:href="#DejaVuSans-74" x="1608.875"/>
     <use xlink:href="#DejaVuSans-6e" x="1648.083984"/>
     <use xlink:href="#DejaVuSans-65" x="1711.462891"/>
     <use xlink:href="#DejaVuSans-73" x="1772.986328"/>
     <use xlink:href="#DejaVuSans-73" x="1825.085938"/>
    </g>
   </g>
   <g id="legend_1">
    <g id="patch_7">
     <path d="M 199.689687 302.584 
L 272.630313 302.584 
Q 274.630313 302.584 274.630313 300.584 
L 274.630313 242.8715 
Q 274.630313 240.8715 272.630313 240.8715 
L 199.689687 240.8715 
Q 197.689687 240.8715 197.689687 242.8715 
L 197.689687 300.584 
Q 197.689687 302.584 199.689687 302.584 
z
" style="fill: #ffffff; opacity: 0.8; stroke: #cccccc; stroke-linejoin: miter"/>
    </g>
    <g id="line2d_39">
     <path d="M 201.689687 248.969937 
L 211.689687 248.969937 
L 221.689687 248.969937 
" style="fill: none; stroke: #0000ff; stroke-width: 1.5; stroke-linecap: square"/>
    </g>
    <g id="text_21">
     <!-- average -->
     <g transform="translate(229.689687 252.469937) scale(0.1 -0.1)">
      <use xlink:href="#DejaVuSans-61"/>
      <use xlink:href="#DejaVuSans-76" x="61.279297"/>
      <use xlink:href="#DejaVuSans-65" x="120.458984"/>
      <use xlink:href="#DejaVuSans-72" x="181.982422"/>
      <use xlink:href="#DejaVuSans-61" x="223.095703"/>
      <use xlink:href="#DejaVuSans-67" x="284.375"/>
      <use xlink:href="#DejaVuSans-65" x="347.851562"/>
     </g>
    </g>
    <g id="line2d_40">
     <path d="M 201.689687 263.648062 
L 211.689687 263.648062 
L 221.689687 263.648062 
" style="fill: none; stroke-dasharray: 9.6,2.4,1.5,2.4; stroke-dashoffset: 0; stroke: #008000; stroke-width: 1.5"/>
    </g>
    <g id="text_22">
     <!-- -1 sd -->
     <g transform="translate(229.689687 267.148062) scale(0.1 -0.1)">
      <defs>
       <path id="DejaVuSans-2d" d="M 313 2009 
L 1997 2009 
L 1997 1497 
L 313 1497 
L 313 2009 
z
" transform="scale(0.015625)"/>
      </defs>
      <use xlink:href="#DejaVuSans-2d"/>
      <use xlink:href="#DejaVuSans-31" x="36.083984"/>
      <use xlink:href="#DejaVuSans-20" x="99.707031"/>
      <use xlink:href="#DejaVuSans-73" x="131.494141"/>
      <use xlink:href="#DejaVuSans-64" x="183.59375"/>
     </g>
    </g>
    <g id="line2d_41">
     <path d="M 201.689687 278.326187 
L 211.689687 278.326187 
L 221.689687 278.326187 
" style="fill: none; stroke-dasharray: 9.6,2.4,1.5,2.4; stroke-dashoffset: 0; stroke: #008000; stroke-width: 1.5"/>
    </g>
    <g id="text_23">
     <!-- +1 sd -->
     <g transform="translate(229.689687 281.826187) scale(0.1 -0.1)">
      <defs>
       <path id="DejaVuSans-2b" d="M 2944 4013 
L 2944 2272 
L 4684 2272 
L 4684 1741 
L 2944 1741 
L 2944 0 
L 2419 0 
L 2419 1741 
L 678 1741 
L 678 2272 
L 2419 2272 
L 2419 4013 
L 2944 4013 
z
" transform="scale(0.015625)"/>
      </defs>
      <use xlink:href="#DejaVuSans-2b"/>
      <use xlink:href="#DejaVuSans-31" x="83.789062"/>
      <use xlink:href="#DejaVuSans-20" x="147.412109"/>
      <use xlink:href="#DejaVuSans-73" x="179.199219"/>
      <use xlink:href="#DejaVuSans-64" x="231.298828"/>
     </g>
    </g>
    <g id="line2d_42">
     <path d="M 201.689687 293.004312 
L 211.689687 293.004312 
L 221.689687 293.004312 
" style="fill: none; stroke: #ff0000; stroke-width: 1.5; stroke-linecap: square"/>
    </g>
    <g id="text_24">
     <!-- best -->
     <g transform="translate(229.689687 296.504312) scale(0.1 -0.1)">
      <use xlink:href="#DejaVuSans-62"/>
      <use xlink:href="#DejaVuSans-65" x="63.476562"/>
      <use xlink:href="#DejaVuSans-73" x="125"/>
      <use xlink:href="#DejaVuSans-74" x="177.099609"/>
     </g>
    </g>
   </g>
  </g>
 </g>
 <defs>
  <clipPath id="p99ceb04cf1">
   <rect x="57.6" y="41.472" width="357.12" height="266.112"/>
  </clipPath>
 </defs>
</svg>
