<?xml version="1.0" encoding="UTF-8" standalone="no"?>
<!DOCTYPE svg PUBLIC "-//W3C//DTD SVG 1.1//EN"
 "http://www.w3.org/Graphics/SVG/1.1/DTD/svg11.dtd">
<!-- Generated by graphviz version 6.0.1 (20220911.1526)
 -->
<!-- Pages: 1 -->
<svg width="206pt" height="332pt"
 viewBox="0.00 0.00 206.23 332.37" xmlns="http://www.w3.org/2000/svg" xmlns:xlink="http://www.w3.org/1999/xlink">
<g id="graph0" class="graph" transform="scale(1 1) rotate(0) translate(4 328.37)">
<polygon fill="white" stroke="none" points="-4,4 -4,-328.37 202.23,-328.37 202.23,4 -4,4"/>
<!-- A -->
<g id="node1" class="node">
<title>A</title>
<polygon fill="lightgray" stroke="black" points="28.98,-308.63 5.98,-308.63 5.98,-290.63 28.98,-290.63 28.98,-308.63"/>
<text text-anchor="middle" x="17.48" y="-297.43" font-family="Times,serif" font-size="9.00">A</text>
</g>
<!-- A XOR B -->
<g id="node3" class="node">
<title>A XOR B</title>
<ellipse fill="lightblue" stroke="black" cx="37.48" cy="-201.4" rx="37.45" ry="37.45"/>
<text text-anchor="middle" x="37.48" y="-199.2" font-family="Times,serif" font-size="9.00">A XOR B</text>
</g>
<!-- A&#45;&gt;A XOR B -->
<g id="edge1" class="edge">
<title>A&#45;&gt;A XOR B</title>
<path fill="none" stroke="green" stroke-width="3.02" d="M19.18,-290.42C21.15,-280.94 24.56,-264.56 27.9,-248.49"/>
<polygon fill="green" stroke="green" stroke-width="3.02" points="31.35,-249.09 29.96,-238.58 24.49,-247.66 31.35,-249.09"/>
</g>
<!-- B -->
<g id="node2" class="node">
<title>B</title>
<polygon fill="lightgray" stroke="black" points="69.98,-308.63 46.98,-308.63 46.98,-290.63 69.98,-290.63 69.98,-308.63"/>
<text text-anchor="middle" x="58.48" y="-297.43" font-family="Times,serif" font-size="9.00">B</text>
</g>
<!-- B&#45;&gt;A XOR B -->
<g id="edge2" class="edge">
<title>B&#45;&gt;A XOR B</title>
<path fill="none" stroke="green" stroke-width="3.22" d="M56.69,-290.42C54.6,-280.86 50.99,-264.3 47.45,-248.1"/>
<polygon fill="green" stroke="green" stroke-width="3.22" points="50.83,-247.16 45.27,-238.13 43.99,-248.65 50.83,-247.16"/>
</g>
<!-- 1356 -->
<g id="node6" class="node">
<title>1356</title>
<ellipse fill="white" stroke="black" cx="75.48" cy="-103.18" rx="25" ry="25"/>
<text text-anchor="middle" x="75.48" y="-100.98" font-family="Times,serif" font-size="9.00">1356</text>
</g>
<!-- A XOR B&#45;&gt;1356 -->
<g id="edge5" class="edge">
<title>A XOR B&#45;&gt;1356</title>
<path fill="none" stroke="red" stroke-width="0.3" d="M50.98,-166.2C54.88,-156.32 59.13,-145.58 62.97,-135.85"/>
<polygon fill="red" stroke="red" stroke-width="0.3" points="66.23,-137.12 66.65,-126.53 59.72,-134.55 66.23,-137.12"/>
</g>
<!-- 555 -->
<g id="node4" class="node">
<title>555</title>
<ellipse fill="white" stroke="black" cx="114.48" cy="-201.4" rx="21.43" ry="21.43"/>
<text text-anchor="middle" x="114.48" y="-199.2" font-family="Times,serif" font-size="9.00">555</text>
</g>
<!-- 555&#45;&gt;1356 -->
<g id="edge3" class="edge">
<title>555&#45;&gt;1356</title>
<path fill="none" stroke="green" stroke-width="0.46" stroke-dasharray="1,5" d="M106.77,-181.39C101.53,-168.45 94.46,-151.01 88.37,-135.98"/>
<polygon fill="green" stroke="green" stroke-width="0.46" points="91.53,-134.48 84.53,-126.52 85.05,-137.11 91.53,-134.48"/>
</g>
<!-- 876 -->
<g id="node5" class="node">
<title>876</title>
<ellipse fill="white" stroke="black" cx="109.48" cy="-299.63" rx="21.43" ry="21.43"/>
<text text-anchor="middle" x="109.48" y="-297.43" font-family="Times,serif" font-size="9.00">876</text>
</g>
<!-- 349 -->
<g id="node8" class="node">
<title>349</title>
<ellipse fill="white" stroke="black" cx="107.48" cy="-21.21" rx="21.43" ry="21.43"/>
<text text-anchor="middle" x="107.48" y="-19.01" font-family="Times,serif" font-size="9.00">349</text>
</g>
<!-- 1356&#45;&gt;349 -->
<g id="edge4" class="edge">
<title>1356&#45;&gt;349</title>
<path fill="none" stroke="green" stroke-width="0.18" d="M84.39,-79.9C88.01,-70.85 92.25,-60.27 96.09,-50.67"/>
<polygon fill="green" stroke="green" stroke-width="0.18" points="99.44,-51.7 99.91,-41.12 92.95,-49.1 99.44,-51.7"/>
</g>
<!-- 219 -->
<g id="node7" class="node">
<title>219</title>
<ellipse fill="white" stroke="black" cx="139.48" cy="-103.18" rx="21.43" ry="21.43"/>
<text text-anchor="middle" x="139.48" y="-100.98" font-family="Times,serif" font-size="9.00">219</text>
</g>
<!-- 219&#45;&gt;349 -->
<g id="edge6" class="edge">
<title>219&#45;&gt;349</title>
<path fill="none" stroke="red" stroke-width="0.32" d="M131.89,-83.23C128.02,-73.54 123.22,-61.55 118.9,-50.76"/>
<polygon fill="red" stroke="red" stroke-width="0.32" points="122.08,-49.29 115.12,-41.3 115.58,-51.89 122.08,-49.29"/>
</g>
<!-- 1502 -->
<g id="node9" class="node">
<title>1502</title>
<ellipse fill="white" stroke="black" cx="173.48" cy="-299.63" rx="25" ry="25"/>
<text text-anchor="middle" x="173.48" y="-297.43" font-family="Times,serif" font-size="9.00">1502</text>
</g>
</g>
</svg>
